<?xml version="1.0" encoding="UTF-8"?>
<svg version="1.1" xmlns="http://www.w3.org/2000/svg" width="200" height="200">
<path d="M0 0 C66 0 132 0 200 0 C200 66 200 132 200 200 C134 200 68 200 0 200 C0 134 0 68 0 0 Z " fill="#FEFEFD" transform="translate(0,0)"/>
<path d="M0 0 C1.35226936 -0.01216049 1.35226936 -0.01216049 2.7318573 -0.02456665 C5.67294521 -0.04349574 8.61354657 -0.04334005 11.5546875 -0.0390625 C13.08480972 -0.04123779 13.08480972 -0.04123779 14.64584351 -0.04345703 C28.48012372 -0.0413031 42.01541997 0.65619914 55.7421875 2.3359375 C70.97114012 4.18939346 86.02701103 4.75845869 101.3671875 4.7734375 C102.40589996 4.77915771 103.44461243 4.78487793 104.51480103 4.79077148 C115.7708841 4.83462737 126.43501481 4.41045588 137.44750977 1.97680664 C140.4296875 1.3359375 140.4296875 1.3359375 143.4296875 1.3359375 C141.78910281 14.87076123 141.78910281 14.87076123 137.4296875 18.3359375 C128.87991368 22.29885041 119.6932974 22.49228827 110.4375 22.50390625 C109.49268768 22.50723465 108.54787537 22.51056305 107.57443237 22.51399231 C105.57924888 22.51903371 103.58405704 22.5214015 101.58886719 22.52124023 C98.5981579 22.52340602 95.60783069 22.54153436 92.6171875 22.56054688 C81.45671131 22.5936623 70.60713985 22.03860503 59.54327393 20.60012817 C30.87675605 17.01691692 2.16078415 15.85338033 -26.5703125 19.3359375 C-25.89457603 13.20378692 -25.34352447 8.32247346 -20.9453125 3.5859375 C-14.51854402 0.20342778 -7.11866175 0.02032837 0 0 Z " fill="#CBCAC6" transform="translate(41.5703125,81.6640625)"/>
<path d="M0 0 C12.55376605 1.53731273 25.00996655 1.80319701 37.65039062 1.77880859 C41.10561904 1.77561976 44.56001154 1.79931251 48.01513672 1.82446289 C62.91534475 1.90983356 62.91534475 1.90983356 77.47851562 -0.89160156 C79.71435547 -1.53686523 79.71435547 -1.53686523 82.71435547 -1.53686523 C82.47954233 10.45995141 82.47954233 10.45995141 78.69873047 14.31860352 C73.90167729 17.08540781 68.11225144 17.61914428 62.71435547 18.46313477 C61.34476685 18.72006104 61.34476685 18.72006104 59.94750977 18.98217773 C53.51004411 19.93980118 46.96246973 19.75305856 40.46435547 19.77563477 C39.6686615 19.77925018 38.87296753 19.7828656 38.05316162 19.78659058 C16.844705 19.82473434 -4.75162996 18.29576433 -25.70556641 14.91064453 C-30.20223053 14.34856152 -34.61048691 14.31997471 -39.13720703 14.33032227 C-40.07309662 14.32936554 -41.00898621 14.32840881 -41.97323608 14.3274231 C-43.94830391 14.32674505 -45.923374 14.32857307 -47.8984375 14.33276367 C-50.88042375 14.33808088 -53.86225689 14.33282464 -56.84423828 14.32641602 C-66.70704881 14.32332326 -76.46642108 14.4399591 -86.28564453 15.46313477 C-86.70598857 9.36814613 -86.3637919 6.33425523 -82.28564453 1.46313477 C-78.7151969 -2.04708845 -74.75203522 -2.29901894 -69.97314453 -2.72436523 C-69.13485107 -2.80259521 -68.29655762 -2.8808252 -67.43286133 -2.96142578 C-44.86764161 -4.86416661 -22.40550069 -2.83446116 0 0 Z " fill="#DBB34F" transform="translate(101.28564453125,35.536865234375)"/>
<path d="M0 0 C0.76769714 -0.00961258 1.53539429 -0.01922516 2.32635498 -0.02912903 C4.83610511 -0.05395609 7.34560962 -0.06643403 9.85546875 -0.07421875 C10.71800262 -0.07750183 11.5805365 -0.08078491 12.46920776 -0.08416748 C24.63421873 -0.09904102 36.54593153 0.51366483 48.60546875 2.11328125 C49.63636124 2.2498262 49.63636124 2.2498262 50.68807983 2.38912964 C53.98127324 2.83039312 57.27188217 3.28729254 60.56201172 3.75097656 C75.64186391 5.86202895 90.58355694 6.45105211 105.79296875 6.55078125 C106.61291321 6.56040894 107.43285767 6.57003662 108.27764893 6.57995605 C120.17139249 6.69976674 131.37520961 5.54719765 143.04296875 3.23828125 C143.08880414 4.66766623 143.12138602 6.09747994 143.1484375 7.52734375 C143.16801514 8.32350098 143.18759277 9.1196582 143.20776367 9.93994141 C142.9472039 13.57388163 141.40635186 15.55552204 139.04296875 18.23828125 C130.01489996 25.89846083 113.19863059 23.67213095 102.10546875 23.67578125 C101.09976837 23.67884277 100.09406799 23.6819043 99.05789185 23.68505859 C83.26472872 23.69747839 67.92784983 22.44758244 52.28536987 20.38247681 C37.70497083 18.48161721 23.37089374 17.77943899 8.66796875 17.86328125 C7.72525116 17.86787354 6.78253357 17.87246582 5.81124878 17.87719727 C-4.81411585 17.95101129 -15.36868905 18.30707338 -25.95703125 19.23828125 C-25.62027317 13.23199322 -25.17390793 8.89903969 -20.95703125 4.23828125 C-14.19127982 0.60482215 -7.55433447 0.07959467 0 0 Z " fill="#CCCBC7" transform="translate(40.95703125,132.76171875)"/>
<path d="M0 0 C1.31926987 -0.00409378 1.31926987 -0.00409378 2.66519165 -0.00827026 C21.83382566 -0.01708541 40.6223226 2.11323858 59.60617065 4.57434082 C70.71958661 5.99384722 81.79761167 6.63302719 93 6.625 C94.07636719 6.62491943 95.15273437 6.62483887 96.26171875 6.62475586 C104.87443898 6.56351271 113.12189172 5.76357998 121.625 4.4375 C123.45704628 4.21813656 125.29023973 4.00786799 127.125 3.8125 C128.8575 3.626875 128.8575 3.626875 130.625 3.4375 C129.85594105 6.81007045 129.07281271 8.90527996 126.625 11.4375 C116.9235412 15.93329798 104.49310223 14.71420415 94 14.75 C93.20575623 14.75328308 92.41151245 14.75656616 91.59320068 14.75994873 C72.81926377 14.78462738 54.33291279 12.79216289 35.70184326 10.67175293 C12.71581141 8.07909444 -10.43012927 6.8129224 -33.375 10.4375 C-32.52296191 6.55869804 -31.67075531 4.84902828 -28.375 2.4375 C-19.38719484 -0.59844073 -9.36990645 0.00252006 0 0 Z " fill="#CAC9C7" transform="translate(51.375,135.5625)"/>
<path d="M0 0 C0.71869263 -0.00140991 1.43738525 -0.00281982 2.17785645 -0.00427246 C4.48711222 -0.00639024 6.79622712 -0.00015298 9.10546875 0.0078125 C10.28573135 0.01013885 10.28573135 0.01013885 11.48983765 0.01251221 C26.26017855 0.04681231 40.72410562 0.37851273 55.35546875 2.58984375 C84.30377499 6.58172328 114.44565819 7.00111985 143.29296875 2.1328125 C142.11086174 6.56571379 141.24606681 8.75503775 137.29296875 11.1328125 C125.39065812 14.3845145 112.19985534 13.48508172 99.98046875 13.4453125 C98.91226898 13.44448669 97.84406921 13.44366089 96.74349976 13.44281006 C81.90495251 13.41637303 67.50457511 12.8329683 52.82714844 10.52197266 C28.85833885 6.84121327 3.26999185 6.40305335 -20.70703125 10.1328125 C-19.97265625 5.4140625 -19.97265625 5.4140625 -17.58203125 2.8828125 C-12.2373856 -0.37045007 -6.11592325 0.00524554 0 0 Z " fill="#CBCBC7" transform="translate(38.70703125,34.8671875)"/>
<path d="M0 0 C0.66 0 1.32 0 2 0 C0.80658727 3.39663622 -0.1318191 5.77927766 -3 8 C-6.14453125 8.9140625 -6.14453125 8.9140625 -9.8125 9.625 C-11.01519531 9.86476563 -12.21789062 10.10453125 -13.45703125 10.3515625 C-14.62621094 10.56554688 -15.79539063 10.77953125 -17 11 C-17.91450928 11.17345947 -18.82901855 11.34691895 -19.77124023 11.52563477 C-26.20902215 12.47146541 -32.75312732 12.28992811 -39.25 12.3125 C-40.04569397 12.31611542 -40.84138794 12.31973083 -41.66119385 12.32345581 C-62.86965047 12.36159957 -84.46598543 10.83262957 -105.41992188 7.44750977 C-109.916586 6.88542675 -114.32484238 6.85683995 -118.8515625 6.8671875 C-119.78745209 6.86623077 -120.72334167 6.86527405 -121.68759155 6.86428833 C-123.66265938 6.86361028 -125.63772947 6.8654383 -127.61279297 6.86962891 C-130.59477922 6.87494611 -133.57661236 6.86968987 -136.55859375 6.86328125 C-146.42140428 6.86018849 -156.18077654 6.97682433 -166 8 C-166 7.01 -166 6.02 -166 5 C-164.56754901 4.50594423 -163.12854555 4.03089583 -161.6875 3.5625 C-160.88699219 3.29566406 -160.08648437 3.02882812 -159.26171875 2.75390625 C-149.73770792 0.55254806 -139.78771022 0.76254847 -130.0625 0.75 C-129.36847076 0.74832825 -128.67444153 0.74665649 -127.9593811 0.74493408 C-114.61748986 0.74303301 -101.57435109 2.01277244 -88.33105469 3.61083984 C-72.05143682 5.51275357 -55.79768942 6.20156249 -39.41952515 6.29653931 C-37.62442921 6.30702639 -35.82935236 6.32184754 -34.03433228 6.34140015 C-16.63165823 7.27967931 -16.63165823 7.27967931 -1.25268555 1.39575195 C-0.83929932 0.93515381 -0.42591309 0.47455566 0 0 Z " fill="#CECDC9" transform="translate(181,43)"/>
<path d="M0 0 C0.33 0.99 0.66 1.98 1 3 C-1.54020689 7.61855798 -4.60438659 8.91962499 -9.390625 10.421875 C-16.24150678 11.93973504 -23.00644096 12.15920016 -29.9921875 12.16796875 C-30.93699982 12.17129715 -31.88181213 12.17462555 -32.85525513 12.17805481 C-34.85043862 12.18309621 -36.84563046 12.185464 -38.84082031 12.18530273 C-41.8315296 12.18746852 -44.82185681 12.20559686 -47.8125 12.22460938 C-58.97297619 12.2577248 -69.82254765 11.70266753 -80.88641357 10.26419067 C-109.55293145 6.68097942 -138.26890335 5.51744283 -167 9 C-167 7.68 -167 6.36 -167 5 C-164.94921875 4.77213542 -162.8984375 4.54427083 -160.84765625 4.31640625 C-158.98859771 4.18113386 -158.98859771 4.18113386 -158 3 C-148.69017467 1.72417488 -139.31906242 1.67543791 -129.9375 1.625 C-128.620345 1.61666138 -128.620345 1.61666138 -127.27658081 1.6081543 C-112.06982973 1.56055617 -97.16254163 2.78541975 -82.0625 4.5 C-67.64007547 6.13413976 -53.40084573 7.50083066 -38.875 7.4375 C-37.56797119 7.43492188 -36.26094238 7.43234375 -34.91430664 7.4296875 C-16.15726279 7.66632196 -16.15726279 7.66632196 0 0 Z " fill="#CCCCCB" transform="translate(182,92)"/>
<path d="M0 0 C1.35863663 -0.01428291 1.35863663 -0.01428291 2.74472046 -0.02885437 C5.71656476 -0.05353327 8.68822255 -0.06592082 11.66015625 -0.07421875 C12.68773041 -0.0781665 13.71530457 -0.08211426 14.77401733 -0.08618164 C28.66965984 -0.11091727 42.24813464 0.5429526 56.03515625 2.23828125 C71.26362018 4.09414006 86.32036399 4.66080281 101.66015625 4.67578125 C102.69886871 4.68150146 103.73758118 4.68722168 104.80776978 4.69311523 C116.06385285 4.73697112 126.72798356 4.31279963 137.74047852 1.87915039 C140.72265625 1.23828125 140.72265625 1.23828125 143.72265625 1.23828125 C143.72265625 1.89828125 143.72265625 2.55828125 143.72265625 3.23828125 C141.87122231 3.89190735 140.01634867 4.53579343 138.16015625 5.17578125 C137.12761719 5.53542969 136.09507812 5.89507812 135.03125 6.265625 C128.54397648 8.17274555 122.12485557 8.41625202 115.41796875 8.4765625 C114.51755356 8.48612976 113.61713837 8.49569702 112.68943787 8.5055542 C109.74214183 8.53028081 106.79504348 8.5427295 103.84765625 8.55078125 C102.83710175 8.55439667 101.82654724 8.55801208 100.78536987 8.56173706 C81.77361745 8.58885743 63.11903551 7.11368221 44.24708557 4.94790649 C32.78364015 3.65087278 21.32312583 3.04370166 9.78515625 3.05078125 C8.67285645 3.05013672 7.56055664 3.04949219 6.41455078 3.04882812 C-2.28580188 3.10433277 -10.69824784 3.786833 -19.27734375 5.23828125 C-19.27734375 5.89828125 -19.27734375 6.55828125 -19.27734375 7.23828125 C-19.93734375 7.23828125 -20.59734375 7.23828125 -21.27734375 7.23828125 C-21.27734375 8.55828125 -21.27734375 9.87828125 -21.27734375 11.23828125 C-20.67995895 11.16804245 -20.08257416 11.09780365 -19.46708679 11.0254364 C-13.14181141 10.33076759 -6.9072057 10.07792809 -0.546875 10.0703125 C0.44661453 10.0669841 1.44010406 10.0636557 2.46369934 10.06022644 C4.55367576 10.05519564 6.64366011 10.05281691 8.73364258 10.05297852 C11.88441627 10.05079905 15.0348352 10.03262093 18.18554688 10.01367188 C28.17068554 9.98637257 37.80926532 10.22105847 47.6887207 11.76831055 C51.55023637 12.36647725 55.31944837 12.57961426 59.22265625 12.73828125 C64.43221534 12.98385367 69.4988031 13.44152299 74.66015625 14.23828125 C85.92673294 15.87928264 97.35678754 15.92058966 108.72265625 16.23828125 C108.72265625 16.56828125 108.72265625 16.89828125 108.72265625 17.23828125 C89.80388669 17.65222386 71.20363591 17.63301189 52.41015625 15.23828125 C38.74787013 13.50863168 25.30774317 12.8652865 11.53515625 12.92578125 C10.22144547 12.93001099 10.22144547 12.93001099 8.88119507 12.93432617 C-5.59640065 11.89941564 -5.59640065 11.89941564 -18.27734375 15.23828125 C-20.61031808 15.27921062 -22.944396 15.28069848 -25.27734375 15.23828125 C-24.86525564 9.98415788 -24.10017288 6.95492068 -20.27734375 3.23828125 C-13.99653611 -0.06740698 -6.92913508 0.06143766 0 0 Z " fill="#EBE7B7" transform="translate(41.27734375,81.76171875)"/>
<path d="M0 0 C0.76769714 -0.00961258 1.53539429 -0.01922516 2.32635498 -0.02912903 C4.83610511 -0.05395609 7.34560962 -0.06643403 9.85546875 -0.07421875 C10.71800262 -0.07750183 11.5805365 -0.08078491 12.46920776 -0.08416748 C24.63421873 -0.09904102 36.54593153 0.51366483 48.60546875 2.11328125 C49.63636124 2.2498262 49.63636124 2.2498262 50.68807983 2.38912964 C53.98127324 2.83039312 57.27188217 3.28729254 60.56201172 3.75097656 C75.64186391 5.86202895 90.58355694 6.45105211 105.79296875 6.55078125 C106.61291321 6.56040894 107.43285767 6.57003662 108.27764893 6.57995605 C120.17139249 6.69976674 131.37520961 5.54719765 143.04296875 3.23828125 C142.33984375 10.87109375 142.33984375 10.87109375 139.66796875 14.17578125 C136.32406991 16.80313034 133.98841834 17.36853452 129.85546875 17.30078125 C127.96828125 17.26984375 127.96828125 17.26984375 126.04296875 17.23828125 C126.04296875 16.90828125 126.04296875 16.57828125 126.04296875 16.23828125 C127.16445313 16.03525391 127.16445313 16.03525391 128.30859375 15.828125 C134.04713943 14.744454 134.04713943 14.744454 138.6640625 11.48046875 C139.8823431 9.37264561 139.8823431 9.37264561 141.04296875 6.23828125 C140.24375 6.44324219 139.44453125 6.64820313 138.62109375 6.859375 C137.5228125 7.12878906 136.42453125 7.39820313 135.29296875 7.67578125 C134.225625 7.94261719 133.15828125 8.20945313 132.05859375 8.484375 C106.47610944 13.89183507 77.4987414 10.09069444 51.82421875 6.37109375 C38.38111473 4.44017722 25.16825073 3.94292103 11.60546875 3.92578125 C10.26053345 3.9205394 10.26053345 3.9205394 8.88842773 3.91519165 C-1.39450662 3.89289387 -11.10406629 3.9539596 -20.95703125 7.23828125 C-22.18223389 10.24675543 -22.18223389 10.24675543 -22.95703125 13.23828125 C-21.82265625 12.92890625 -20.68828125 12.61953125 -19.51953125 12.30078125 C-10.63704767 9.87828573 -1.45876384 10.0833902 7.66796875 10.11328125 C9.45074219 10.10748047 9.45074219 10.10748047 11.26953125 10.1015625 C16.96247543 10.10791623 22.43878307 10.20290384 28.04296875 11.23828125 C28.04296875 11.56828125 28.04296875 11.89828125 28.04296875 12.23828125 C26.70057129 12.26801025 26.70057129 12.26801025 25.33105469 12.29833984 C8.49311513 12.68956796 -8.22576049 13.1443312 -24.95703125 15.23828125 C-24.23828125 8.58984375 -24.23828125 8.58984375 -21.70703125 5.42578125 C-15.26410645 0.30072743 -7.9831425 0.08411271 0 0 Z " fill="#C19541" transform="translate(40.95703125,132.76171875)"/>
<path d="M0 0 C0.75 1.625 0.75 1.625 1 4 C-1.3126006 8.35836267 -3.44838383 11.06314206 -8 13 C-15.22219275 14.71369716 -22.24335083 15.29871541 -29.64453125 15.265625 C-31.10290657 15.26849518 -31.10290657 15.26849518 -32.59074402 15.27142334 C-34.63186911 15.27277391 -36.67300313 15.26915713 -38.71411133 15.26074219 C-41.79463557 15.25006194 -44.87457207 15.26065838 -47.95507812 15.2734375 C-58.48723004 15.27981193 -68.62269369 14.97963605 -79 13 C-79 12.34 -79 11.68 -79 11 C-75.61773724 10.23741236 -72.51323262 9.88069226 -69.04882812 9.90234375 C-67.6107782 9.90729858 -67.6107782 9.90729858 -66.14367676 9.91235352 C-65.11657593 9.92065186 -64.0894751 9.9289502 -63.03125 9.9375 C-61.95935425 9.94128662 -60.8874585 9.94507324 -59.78308105 9.94897461 C-55.21145872 9.9652455 -50.63992699 9.99318769 -46.06835938 10.02050781 C-23.00138653 11.7516253 -23.00138653 11.7516253 -2.125 4.5 C-0.78259341 2.87482651 -0.78259341 2.87482651 0 0 Z " fill="#CBCBC9" transform="translate(183,141)"/>
<path d="M0 0 C0 0.66 0 1.32 0 2 C-6.90468037 2.10979174 -13.73530214 1.97957701 -20.625 1.5 C-29.3090948 0.94424946 -37.99525666 0.85668648 -46.6942749 0.82275391 C-48.25943868 0.81597708 -49.8245918 0.8057843 -51.38970947 0.79199219 C-64.71611596 -0.03641411 -64.71611596 -0.03641411 -76.66430664 4.32348633 C-78.17148029 6.21523582 -78.48711205 7.66629126 -79 10 C-77.32164063 9.51104248 -77.32164063 9.51104248 -75.609375 9.01220703 C-70.78480009 7.81149042 -66.19953042 7.74496826 -61.25 7.8046875 C-59.90192261 7.80893234 -59.90192261 7.80893234 -58.52661133 7.81326294 C-55.68426635 7.82436875 -52.84224814 7.84945495 -50 7.875 C-48.0612025 7.88504223 -46.12240001 7.89416589 -44.18359375 7.90234375 C-39.45560518 7.92427655 -34.7278578 7.95873916 -30 8 C-30 8.33 -30 8.66 -30 9 C-31.28293945 9.029729 -31.28293945 9.029729 -32.59179688 9.06005859 C-57.43475402 9.53429423 -57.43475402 9.53429423 -82 13 C-81.71369608 8.22826806 -80.97124746 4.79914971 -77.62890625 1.21875 C-74.42460242 -1.17871474 -70.89394326 -1.53800673 -67 -2 C-66.19433594 -2.10957031 -65.38867188 -2.21914063 -64.55859375 -2.33203125 C-43.01832476 -4.683589 -21.4265481 -2.29374075 0 0 Z " fill="#C79B47" transform="translate(97,35)"/>
<path d="M0 0 C0 0.66 0 1.32 0 2 C-1.85143394 2.6536261 -3.70630758 3.29751218 -5.5625 3.9375 C-6.59503906 4.29714844 -7.62757813 4.65679687 -8.69140625 5.02734375 C-15.46156487 7.01762651 -22.11861795 7.15944878 -29.11328125 7.16796875 C-30.08170456 7.17129715 -31.05012787 7.17462555 -32.04789734 7.17805481 C-34.09613575 7.18310269 -36.14438233 7.1854638 -38.19262695 7.18530273 C-41.26463158 7.18746629 -44.336263 7.20558119 -47.40820312 7.22460938 C-56.7679363 7.25193251 -66.04165923 7.10517349 -75.35546875 6.11328125 C-76.10597 6.03554977 -76.85647125 5.9578183 -77.62971497 5.87773132 C-82.7435416 5.2564584 -82.7435416 5.2564584 -85 3 C-83.81301514 3.00999275 -83.81301514 3.00999275 -82.60205078 3.02018738 C-75.0723875 3.08079189 -67.54284573 3.12622147 -60.01300049 3.15543652 C-56.1436506 3.17096213 -52.27450551 3.19195408 -48.40527344 3.22631836 C-44.65751186 3.25938801 -40.90994478 3.27695092 -37.16204834 3.28463173 C-35.7462051 3.29009133 -34.33037009 3.30074638 -32.91461182 3.31719017 C-23.75179694 3.41918987 -15.17414061 2.55092206 -6.23046875 0.64595032 C-3 0 -3 0 0 0 Z " fill="#B58330" transform="translate(185,83)"/>
<path d="M0 0 C0.85715607 0.00141495 1.71431213 0.0028299 2.59744263 0.00428772 C5.3176024 0.00985603 8.03767788 0.02240261 10.7578125 0.03515625 C12.60937381 0.04017535 14.46093641 0.04473754 16.3125 0.04882812 C20.83596965 0.05981508 25.35937682 0.07705773 29.8828125 0.09765625 C29.8828125 0.42765625 29.8828125 0.75765625 29.8828125 1.09765625 C27.2428125 1.42765625 24.6028125 1.75765625 21.8828125 2.09765625 C21.8828125 2.42765625 21.8828125 2.75765625 21.8828125 3.09765625 C20.99609863 3.11747559 20.10938477 3.13729492 19.19580078 3.15771484 C15.85945586 3.23649872 12.52350185 3.32320869 9.1875 3.41503906 C7.75235737 3.45297518 6.31713104 3.48788487 4.88183594 3.51953125 C-4.36871463 3.72595916 -13.26399553 4.14659226 -22.1171875 7.09765625 C-23.34239014 10.10613043 -23.34239014 10.10613043 -24.1171875 13.09765625 C-22.9828125 12.78828125 -21.8484375 12.47890625 -20.6796875 12.16015625 C-11.79720392 9.73766073 -2.61892009 9.9427652 6.5078125 9.97265625 C8.29058594 9.96685547 8.29058594 9.96685547 10.109375 9.9609375 C15.80231918 9.96729123 21.27862682 10.06227884 26.8828125 11.09765625 C26.8828125 11.42765625 26.8828125 11.75765625 26.8828125 12.09765625 C25.54041504 12.12738525 25.54041504 12.12738525 24.17089844 12.15771484 C7.33295888 12.54894296 -9.38591674 13.0037062 -26.1171875 15.09765625 C-25.3984375 8.44921875 -25.3984375 8.44921875 -22.8671875 5.28515625 C-16.07055805 -0.12125354 -8.3263056 -0.05227337 0 0 Z " fill="#D0B163" transform="translate(42.1171875,132.90234375)"/>
<path d="M0 0 C20.01691009 2.31240849 39.66257941 3.42563901 59.81982422 3.14282227 C60.677509 3.1312912 61.53519379 3.11976013 62.41886902 3.10787964 C64.01786444 3.08361555 65.61678624 3.05345613 67.2155304 3.0161438 C71.01085122 2.94788909 74.47637495 3.0925969 78.1640625 4.02734375 C78.1640625 4.35734375 78.1640625 4.68734375 78.1640625 5.02734375 C68.39244984 5.93105242 58.65965111 6.26564884 48.8515625 6.27734375 C47.7266188 6.27985138 47.7266188 6.27985138 46.57894897 6.28240967 C26.16148222 6.28509947 6.01963914 4.14805874 -14.203125 1.43359375 C-21.38883255 0.63003076 -28.61488365 0.3449364 -35.8359375 0.02734375 C-35.8359375 -0.30265625 -35.8359375 -0.63265625 -35.8359375 -0.97265625 C-23.84702156 -2.62367222 -11.95234623 -1.38830694 0 0 Z " fill="#E0D090" transform="translate(93.8359375,145.97265625)"/>
<path d="M0 0 C19.73706813 -0.240538 38.98163537 0.06048992 58.5703125 2.765625 C77.02892684 5.25096627 95.40133435 5.71737398 114 6 C114 6.33 114 6.66 114 7 C99.44807624 8.72649943 85.04272591 8.04720237 70.49145508 6.828125 C68.06840403 6.62549373 65.64470495 6.43307305 63.22070312 6.2421875 C55.25728042 5.60324498 47.30921068 4.86336629 39.37109375 3.9609375 C38.64221451 3.88026031 37.91333527 3.79958313 37.16236877 3.71646118 C32.12015249 3.12015249 32.12015249 3.12015249 31 2 C28.71011219 1.84111908 26.41556559 1.74861927 24.12109375 1.68359375 C23.4344313 1.66281265 22.74776886 1.64203156 22.04029846 1.62062073 C19.83947065 1.55505857 17.63852025 1.49620985 15.4375 1.4375 C13.94855486 1.39432108 12.45962227 1.350707 10.97070312 1.30664062 C7.31393447 1.1993707 3.65702682 1.09812228 0 1 C0 0.67 0 0.34 0 0 Z " fill="#E2D498" transform="translate(36,42)"/>
<path d="M0 0 C25.39092731 -0.47741113 50.0635495 0.19740947 75.24511719 3.54248047 C80.81676512 4.22136657 86.39971697 4.64029921 92 5 C92 5.33 92 5.66 92 6 C79.17172617 7.68239657 67.20538605 6.54637939 54.44351196 4.91952515 C36.26447944 2.61675977 18.33352617 1.1153052 0 1 C0 0.67 0 0.34 0 0 Z " fill="#D0A546" transform="translate(35,134)"/>
<path d="M0 0 C0.75738968 -0.00678772 1.51477936 -0.01357544 2.29512024 -0.02056885 C4.75798649 -0.03755856 7.22067261 -0.04377406 9.68359375 -0.046875 C10.52158508 -0.04921143 11.35957642 -0.05154785 12.22296143 -0.05395508 C28.02364755 -0.07052593 43.45595127 1.10800042 59.12109375 3.203125 C59.12109375 3.533125 59.12109375 3.863125 59.12109375 4.203125 C49.49542186 5.87715489 40.05335007 5.1176876 30.37109375 4.265625 C15.63446101 3.04027366 0.8991756 2.58220823 -13.87890625 2.203125 C-13.87890625 1.873125 -13.87890625 1.543125 -13.87890625 1.203125 C-9.2350521 0.30066829 -4.71678466 0.02910664 0 0 Z " fill="#E1C160" transform="translate(47.87890625,81.796875)"/>
<path d="M0 0 C4.83402725 0.54566778 9.61659323 0.6726553 14.47753906 0.71582031 C16.26205421 0.74384 18.04655934 0.77250395 19.83105469 0.80175781 C22.61157459 0.84327655 25.39189657 0.88021474 28.17260742 0.90625 C30.87879549 0.93370717 33.58416353 0.97950952 36.29003906 1.02832031 C37.12643417 1.03157318 37.96282928 1.03482605 38.8245697 1.03817749 C41.1628418 1.08837891 41.1628418 1.08837891 44.91894531 1.50488281 C45.90894531 2.98988281 45.90894531 2.98988281 46.91894531 4.50488281 C24.35799713 4.88674072 2.32982072 4.21843664 -20.08105469 1.50488281 C-20.08105469 1.17488281 -20.08105469 0.84488281 -20.08105469 0.50488281 C-13.38468884 -0.90487842 -6.76212106 -0.84409991 0 0 Z " fill="#EACF77" transform="translate(111.0810546875,36.4951171875)"/>
<path d="M0 0 C0 0.33 0 0.66 0 1 C-1.97033203 1.14695313 -1.97033203 1.14695313 -3.98046875 1.296875 C-5.71622583 1.44699453 -7.45189892 1.59808743 -9.1875 1.75 C-10.05181641 1.811875 -10.91613281 1.87375 -11.80664062 1.9375 C-16.96510934 2.41184195 -20.37277861 2.9584467 -24 7 C-24.63674781 9.07680375 -24.63674781 9.07680375 -25 11 C-23.32164063 10.51104248 -23.32164063 10.51104248 -21.609375 10.01220703 C-16.78480009 8.81149042 -12.19953042 8.74496826 -7.25 8.8046875 C-5.90192261 8.80893234 -5.90192261 8.80893234 -4.52661133 8.81326294 C-1.68426635 8.82436875 1.15775186 8.84945495 4 8.875 C5.9387975 8.88504223 7.87759999 8.89416589 9.81640625 8.90234375 C14.54439482 8.92427655 19.2721422 8.95873916 24 9 C24 9.33 24 9.66 24 10 C22.71706055 10.029729 22.71706055 10.029729 21.40820312 10.06005859 C-3.43475402 10.53429423 -3.43475402 10.53429423 -28 14 C-27.71401802 9.23363371 -26.98097755 5.79228865 -23.625 2.2265625 C-16.98947025 -2.7819864 -7.66982505 -0.87722883 0 0 Z " fill="#BF9546" transform="translate(43,34)"/>
<path d="M0 0 C11.67993009 -0.22703968 23.38391834 0.2346865 34.9375 2 C46.20407669 3.64100139 57.63413129 3.68230841 69 4 C69 4.33 69 4.66 69 5 C32.36652305 5.5699775 32.36652305 5.5699775 15.375 3.625 C14.26987061 3.49891357 13.16474121 3.37282715 12.02612305 3.24291992 C7.5833394 2.67567323 3.94623257 2.21084801 0 0 Z " fill="#DDC16B" transform="translate(81,94)"/>
<path d="M0 0 C0.33 0 0.66 0 1 0 C1.3125 3.25 1.3125 3.25 1 7 C-3.6885034 12.62620408 -11.78202012 13.82724533 -18.73046875 14.578125 C-26.70445451 15.2410566 -34.69300769 15.10687199 -42.6875 15.0625 C-44.27538921 15.05747247 -45.86327996 15.05291179 -47.45117188 15.04882812 C-51.30082025 15.03792755 -55.15039253 15.02073283 -59 15 C-59 14.67 -59 14.34 -59 14 C-58.33282959 13.98541748 -57.66565918 13.97083496 -56.97827148 13.95581055 C-44.69301806 13.65873059 -32.50484298 13.16846721 -20.3125 11.5625 C-19.37656006 11.44028076 -18.44062012 11.31806152 -17.47631836 11.19213867 C-12.51954267 10.49604616 -7.68697176 9.79262665 -3 8 C-1.52917453 4.52042471 -1.52917453 4.52042471 -1 1 C-0.67 0.67 -0.34 0.34 0 0 Z " fill="#E3DBA3" transform="translate(183,85)"/>
<path d="M0 0 C1.83332845 0.0100483 3.66666223 0.01917088 5.5 0.02734375 C9.95846634 0.04921436 14.41667358 0.08364261 18.875 0.125 C18.875 0.455 18.875 0.785 18.875 1.125 C16.235 1.455 13.595 1.785 10.875 2.125 C10.875 2.455 10.875 2.785 10.875 3.125 C9.53707397 3.16258423 9.53707397 3.16258423 8.17211914 3.20092773 C4.82289975 3.29678118 1.47381176 3.39596492 -1.87524414 3.49731445 C-3.31726302 3.54029012 -4.75932067 3.58198648 -6.20141602 3.62231445 C-13.88455833 3.83802833 -21.49625304 4.11067498 -29.125 5.125 C-29.455 4.135 -29.785 3.145 -30.125 2.125 C-20.15566153 -0.51822753 -10.22981275 -0.09776056 0 0 Z " fill="#D9BC71" transform="translate(53.125,132.875)"/>
<path d="M0 0 C0 0.66 0 1.32 0 2 C-9.20377768 5.24928112 -17.22999153 7.17140366 -27 7 C-27 6.67 -27 6.34 -27 6 C-35.25 5.67 -43.5 5.34 -52 5 C-52 4.67 -52 4.34 -52 4 C-51.08412109 3.98541748 -50.16824219 3.97083496 -49.22460938 3.95581055 C-45.74263263 3.89382015 -42.26132836 3.81951593 -38.77978516 3.73754883 C-37.28867074 3.70481393 -35.79744763 3.67663256 -34.30615234 3.65356445 C-24.68390079 3.50088187 -15.59884571 2.63172484 -6.17773438 0.63208008 C-3 0 -3 0 0 0 Z " fill="#C6A775" transform="translate(185,83)"/>
<path d="M0 0 C-0.36696811 7.2170395 -0.36696811 7.2170395 -3.375 10.9375 C-6.71889884 13.56484909 -9.05455041 14.13025327 -13.1875 14.0625 C-15.0746875 14.0315625 -15.0746875 14.0315625 -17 14 C-17 13.67 -17 13.34 -17 13 C-16.25234375 12.86464844 -15.5046875 12.72929687 -14.734375 12.58984375 C-8.99582932 11.50617275 -8.99582932 11.50617275 -4.37890625 8.2421875 C-3.16062565 6.13436436 -3.16062565 6.13436436 -2 3 C-3.2375 3.33 -4.475 3.66 -5.75 4 C-11.49772546 5.30171773 -17.1373892 5.17855667 -23 5 C-23 4.67 -23 4.34 -23 4 C-19.54223673 3.33035334 -16.08370019 2.66478913 -12.625 2 C-11.64015625 1.80921875 -10.6553125 1.6184375 -9.640625 1.421875 C-8.69960937 1.24140625 -7.75859375 1.0609375 -6.7890625 0.875 C-5.91975098 0.70742187 -5.05043945 0.53984375 -4.15478516 0.3671875 C-2 0 -2 0 0 0 Z " fill="#B3853B" transform="translate(184,136)"/>
<path d="M0 0 C-0.99 1.485 -0.99 1.485 -2 3 C-4.75711269 3.54501065 -7.34152546 3.92549765 -10.125 4.1875 C-11.25615234 4.3102832 -11.25615234 4.3102832 -12.41015625 4.43554688 C-14.27216607 4.6358897 -16.13595811 4.81954036 -18 5 C-18 5.66 -18 6.32 -18 7 C-18.66 7 -19.32 7 -20 7 C-20.66 8.98 -21.32 10.96 -22 13 C-20.68 13.33 -19.36 13.66 -18 14 C-19.98 14.33 -21.96 14.66 -24 15 C-23.58791189 9.74587663 -22.82282913 6.71663943 -19 3 C-13.00635624 -0.15454934 -6.60726834 -0.11391842 0 0 Z " fill="#F0DD89" transform="translate(40,82)"/>
<path d="M0 0 C-3.9148095 2.609873 -7.08631905 2.15493274 -11.60546875 1.9765625 C-12.44467361 1.95153656 -13.28387848 1.92651062 -14.14851379 1.90072632 C-16.82858895 1.81856181 -19.50792324 1.72195916 -22.1875 1.625 C-24.00452704 1.56675677 -25.82158447 1.50945356 -27.63867188 1.453125 C-32.09287393 1.31298837 -36.54646544 1.15990126 -41 1 C-41 0.67 -41 0.34 -41 0 C-11.22487623 -1.79484061 -11.22487623 -1.79484061 0 0 Z " fill="#E5DA99" transform="translate(84,93)"/>
<path d="M0 0 C9.73944972 -0.12276617 19.29056184 0.16220564 29 1 C29 1.66 29 2.32 29 3 C19.05603122 3.25068829 9.8223548 2.6950751 0 1 C0 0.67 0 0.34 0 0 Z " fill="#E8DD95" transform="translate(110,149)"/>
<path d="M0 0 C0 0.33 0 0.66 0 1 C-6.64041122 2.22399452 -13.20221697 2.11227753 -19.9375 2.0625 C-21.67870117 2.05573242 -21.67870117 2.05573242 -23.45507812 2.04882812 C-26.30343934 2.03710647 -29.15169222 2.0206976 -32 2 C-32 1.67 -32 1.34 -32 1 C-28.35553573 0.63071719 -24.70934777 0.28238188 -21.0625 -0.0625 C-19.53012695 -0.2181543 -19.53012695 -0.2181543 -17.96679688 -0.37695312 C-11.76400799 -0.95165242 -6.16449691 -0.9192107 0 0 Z " fill="#E4CE78" transform="translate(171,48)"/>
<path d="M0 0 C0 0.66 0 1.32 0 2 C-10.3734499 2.16494885 -20.6510926 1.65043638 -31 1 C-31 0.67 -31 0.34 -31 0 C-20.50588146 -1.08101063 -10.48947132 -0.82544266 0 0 Z " fill="#D6B259" transform="translate(97,35)"/>
<path d="M0 0 C0.33 0 0.66 0 1 0 C1.3125 3.25 1.3125 3.25 1 7 C-2.75122417 11.08221454 -7.08917971 12.86907855 -12.60546875 13.1171875 C-15.07408573 13.12415116 -17.53308911 13.08775572 -20 13 C-20 12.67 -20 12.34 -20 12 C-19.10796875 11.79503906 -18.2159375 11.59007813 -17.296875 11.37890625 C-16.12640625 11.10949219 -14.9559375 10.84007813 -13.75 10.5625 C-12.58984375 10.29566406 -11.4296875 10.02882813 -10.234375 9.75390625 C-7.81650239 9.19032 -5.40556696 8.61330049 -3 8 C-2.690625 6.865625 -2.38125 5.73125 -2.0625 4.5625 C-1 1 -1 1 0 0 Z " fill="#EFEDC1" transform="translate(183,85)"/>
<path d="M0 0 C0.68578125 0.03472412 1.3715625 0.06944824 2.078125 0.10522461 C5.67087263 0.34660127 8.48564425 0.75954691 11.5625 2.6875 C1.1890501 2.85244885 -9.0885926 2.33793638 -19.4375 1.6875 C-19.4375 1.3575 -19.4375 1.0275 -19.4375 0.6875 C-12.91091146 -0.21128868 -6.56311594 -0.37719919 0 0 Z " fill="#E6DA98" transform="translate(77.4375,144.3125)"/>
<path d="M0 0 C0 0.33 0 0.66 0 1 C-8.10102949 2.89726713 -16.85009554 2.5162613 -25 1 C-25 0.67 -25 0.34 -25 0 C-16.64644795 -1.75864254 -8.3957253 -1.08331939 0 0 Z " fill="#E3C46A" transform="translate(116,37)"/>
<path d="M0 0 C9.07448253 -0.11157151 17.96278689 0.05757182 27 1 C27 1.33 27 1.66 27 2 C17.67367437 3.62196967 9.20647336 3.19388301 0 1 C0 0.67 0 0.34 0 0 Z " fill="#D0A546" transform="translate(80,84)"/>
<path d="M0 0 C0 0.66 0 1.32 0 2 C-6.83085645 4.44166784 -12.7515055 5.41640288 -20 5 C-19.67 4.34 -19.34 3.68 -19 3 C-16.36353841 2.35710444 -13.79418621 1.82992217 -11.125 1.375 C-10.39152344 1.2409375 -9.65804687 1.106875 -8.90234375 0.96875 C-5.89693262 0.43226495 -3.05850122 0 0 0 Z " fill="#B38642" transform="translate(185,83)"/>
<path d="M0 0 C0.33 0 0.66 0 1 0 C1 1.98 1 3.96 1 6 C1.515625 5.835 2.03125 5.67 2.5625 5.5 C5.73363876 4.84951 8.77218334 4.9379266 12 5 C8.9530371 6.69433918 6.17178534 7.49467112 2.75 8.125 C1.41195313 8.37636719 1.41195313 8.37636719 0.046875 8.6328125 C-0.62859375 8.75398438 -1.3040625 8.87515625 -2 9 C-1.125 2.25 -1.125 2.25 0 0 Z " fill="#B88D46" transform="translate(17,39)"/>
<path d="M0 0 C0.66 0.33 1.32 0.66 2 1 C1.67 1.99 1.34 2.98 1 4 C0.34 4 -0.32 4 -1 4 C-1.66 5.98 -2.32 7.96 -3 10 C-1.68 10.33 -0.36 10.66 1 11 C-0.98 11.33 -2.96 11.66 -5 12 C-4.58525633 6.71201818 -3.64775386 3.88309282 0 0 Z " fill="#F1E69C" transform="translate(21,85)"/>
<path d="M0 0 C0.66 1.32 1.32 2.64 2 4 C-3.20018495 8.35691171 -6.22732836 9.12778626 -13 9 C-10.48511175 7.69225811 -8.03688523 6.6346806 -5.375 5.625 C-1.94978526 4.33247965 -1.94978526 4.33247965 -0.5625 1.8125 C-0.376875 1.214375 -0.19125 0.61625 0 0 Z " fill="#CDAD5F" transform="translate(181,39)"/>
<path d="M0 0 C0.75 1.625 0.75 1.625 1 4 C-0.9375 7.25 -0.9375 7.25 -3 10 C-4.65 9.67 -6.3 9.34 -8 9 C-6.8553125 8.1646875 -6.8553125 8.1646875 -5.6875 7.3125 C-3.03859112 5.03320631 -1.61711178 3.06400128 0 0 Z " fill="#D2C6B3" transform="translate(183,141)"/>
<path d="M0 0 C-0.33 0.598125 -0.66 1.19625 -1 1.8125 C-2.20787988 4.05386471 -2.20787988 4.05386471 -2 7 C-3.32 7.33 -4.64 7.66 -6 8 C-5.62403791 5.21788056 -5.32681541 3.4120716 -3.5625 1.1875 C-2 0 -2 0 0 0 Z " fill="#CEC1AB" transform="translate(24,37)"/>
<path d="M0 0 C-0.57344937 2.86724686 -0.8614515 3.8614515 -3 6 C-3 4.68 -3 3.36 -3 2 C-4.98 2 -6.96 2 -9 2 C-9 1.67 -9 1.34 -9 1 C-5.846632 0.29925156 -3.27275026 0 0 0 Z " fill="#CCBCA1" transform="translate(182,139)"/>
<path d="M0 0 C1.10844919 3.32534757 0.84454356 5.62182575 0 9 C-0.66 9 -1.32 9 -2 9 C-1.125 2.25 -1.125 2.25 0 0 Z " fill="#B08D53" transform="translate(17,39)"/>
</svg>
