<?xml version="1.0" encoding="UTF-8"?>
<svg version="1.1" xmlns="http://www.w3.org/2000/svg" width="200" height="200">
<path d="M0 0 C28.86248044 3.27854797 57.067362 5.23911426 85.8125 -0.5 C86.15159288 4.92548606 85.67792011 9.75689845 82.8125 14.5 C78.91039386 18.26321839 75.26406044 19.42236831 70.03125 20.21875 C69.2829895 20.33996216 68.534729 20.46117432 67.76379395 20.58605957 C59.95546091 21.76568862 52.20026612 22.04373488 44.3125 22 C43.5475824 22.00023163 42.78266479 22.00046326 41.99456787 22.0007019 C25.41010277 21.96718984 9.05255193 20.1735758 -7.41479492 18.36499023 C-33.25817491 15.53786448 -58.27132861 15.01280253 -84.1875 17.5 C-85.57596584 12.54063653 -84.430232 9.08368584 -82.1875 4.5 C-75.94165244 -2.32685664 -68.22483932 -2.80573359 -59.44433594 -3.30419922 C-39.47855147 -4.11315019 -19.80382241 -2.25869459 0 0 Z " fill="#CAC9C6" transform="translate(99.1875,135.5)"/>
<path d="M0 0 C28.7108413 2.68586111 55.98107809 4.39740736 84.4375 -1.5 C86.30149581 2.22799162 84.46623586 6.61774683 83.4375 10.5 C81.9838254 13.91613532 80.96900703 15.14998318 77.875 17.1875 C52.87438619 26.73318891 20.35154352 21.37276564 -5.60546875 18.69921875 C-32.21682887 15.9771808 -58.96946491 14.80009947 -85.5625 18.5 C-87.16810829 13.65018318 -85.62037369 10.00159871 -83.5625 5.5 C-80.33982014 1.04511902 -77.34938717 -0.25539218 -72.11254883 -1.1262207 C-48.11590888 -4.64358363 -23.98507858 -2.25756963 0 0 Z " fill="#CACAC6" transform="translate(100.5625,83.5)"/>
<path d="M0 0 C28.26837255 2.86753779 57.34135246 5.50344441 85.40234375 -0.37890625 C88.5 -1 88.5 -1 91.5 -1 C91.94644364 5.2502109 91.21899384 9.8232524 87.5 15 C78.27146385 23.76605826 56.36642473 22.09703852 44.5 22 C27.97406845 21.54297756 11.5679634 19.9435101 -4.85565186 18.14984131 C-20.80097698 16.41033022 -36.43885709 15.35732058 -52.5 16 C-53.34723633 16.03287109 -54.19447266 16.06574219 -55.06738281 16.09960938 C-63.2372232 16.44614922 -71.37296311 17.0969959 -79.5 18 C-79.98817152 12.14194175 -78.92125946 7.85734368 -75.5 3 C-59.61693609 -11.09621922 -19.33426794 -1.96658975 0 0 Z " fill="#CBCAC5" transform="translate(93.5,34)"/>
<path d="M0 0 C0.99 0.99 0.99 0.99 2 2 C-0.7805286 6.81245334 -2.9048403 8.8462258 -8 11 C-17.9126125 13.30520381 -28.17947055 13.43433317 -38.3125 13.4375 C-39.08491028 13.44022919 -39.85732056 13.44295837 -40.65313721 13.44577026 C-55.16677732 13.45327549 -69.45880403 12.148204 -83.875 10.5625 C-111.91199374 7.48137584 -138.85153846 6.29856771 -167 9 C-168.1171875 5.28125 -168.1171875 5.28125 -167.0625 2.75 C-166.711875 2.1725 -166.36125 1.595 -166 1 C-166 1.99 -166 2.98 -166 4 C-164.32115723 3.51539307 -164.32115723 3.51539307 -162.60839844 3.02099609 C-157.80101568 1.82646066 -153.20092324 1.67764536 -148.265625 1.6640625 C-147.32993683 1.65591019 -146.39424866 1.64775787 -145.4302063 1.63935852 C-142.36999447 1.62029839 -139.31026318 1.62045055 -136.25 1.625 C-135.20241516 1.62388214 -134.15483032 1.62276428 -133.07550049 1.62161255 C-109.8606863 1.63372263 -85.86263238 2.40860152 -62.95654297 6.55029297 C-59.35349931 7.09833644 -55.80692853 7.16163581 -52.171875 7.16796875 C-51.05780777 7.17438889 -51.05780777 7.17438889 -49.92123413 7.18093872 C-47.53076087 7.19088928 -45.14048993 7.19100301 -42.75 7.1875 C-41.93964294 7.18656342 -41.12928589 7.18562683 -40.29437256 7.18466187 C-18.59742107 8.41022658 -18.59742107 8.41022658 0 0 Z " fill="#CBCBC8" transform="translate(182,144)"/>
<path d="M0 0 C0.99 0.495 0.99 0.495 2 1 C1.42983875 2.27679728 0.84320153 3.54624288 0.25 4.8125 C-0.07484375 5.52019531 -0.3996875 6.22789063 -0.734375 6.95703125 C-2.92075676 10.48628328 -5.11990612 11.73898356 -9.08203125 12.9140625 C-37.36487766 18.30409187 -65.98105046 15.24871061 -94.35565186 12.14984131 C-110.30097698 10.41033022 -125.93885709 9.35732058 -142 10 C-142.84723633 10.03287109 -143.69447266 10.06574219 -144.56738281 10.09960938 C-152.7372232 10.44614922 -160.87296311 11.0969959 -169 12 C-168.8125 10.125 -168.8125 10.125 -168 8 C-147.37261103 -3.34694257 -110.82263184 4.1452223 -88.625 7.0625 C-73.41582432 9.05991747 -58.07772776 9.21023454 -42.7578125 9.24023438 C-39.7393126 9.2500347 -36.72146929 9.28124207 -33.703125 9.3125 C-23.04792114 9.36880746 -13.31572512 8.95180222 -3 6 C-3 5.34 -3 4.68 -3 4 C-2.34 4 -1.68 4 -1 4 C-0.67 2.68 -0.34 1.36 0 0 Z " fill="#CCCBC8" transform="translate(183,40)"/>
<path d="M0 0 C28.86248044 3.27854797 57.067362 5.23911426 85.8125 -0.5 C86.0625 6.125 86.0625 6.125 83.8125 9.5 C82.296875 10.8515625 82.296875 10.8515625 80.5625 12.125 C80.00046875 12.55039063 79.4384375 12.97578125 78.859375 13.4140625 C74.08269646 15.94825455 68.71644676 15.61230138 63.4375 15.5625 C61.56964844 15.54896484 61.56964844 15.54896484 59.6640625 15.53515625 C58.25253906 15.51775391 58.25253906 15.51775391 56.8125 15.5 C56.8125 15.17 56.8125 14.84 56.8125 14.5 C57.39217529 14.43530518 57.97185059 14.37061035 58.5690918 14.30395508 C61.21587216 13.99575926 63.85738203 13.65448585 66.5 13.3125 C67.86801758 13.16071289 67.86801758 13.16071289 69.26367188 13.00585938 C73.76356481 12.40041924 76.25574208 11.93820871 79.89453125 9.07421875 C81.95820128 6.58493743 81.95820128 6.58493743 82.8125 3.5 C81.91789063 3.70496094 81.02328125 3.90992188 80.1015625 4.12109375 C78.28785156 4.52521484 78.28785156 4.52521484 76.4375 4.9375 C75.25414062 5.20433594 74.07078125 5.47117188 72.8515625 5.74609375 C45.25007093 11.28921464 14.43374892 7.00584957 -13.15625 2.92749023 C-23.72471911 1.41299087 -34.09107282 1.22531041 -44.75390625 1.29418945 C-47.71102402 1.31264683 -50.6678301 1.31469695 -53.625 1.31445312 C-55.53125268 1.31936336 -57.43750327 1.32518951 -59.34375 1.33203125 C-60.21471313 1.33314407 -61.08567627 1.3342569 -61.98303223 1.33540344 C-67.13464494 1.37506543 -72.0876729 1.7624673 -77.1875 2.5 C-77.1875 3.16 -77.1875 3.82 -77.1875 4.5 C-77.8475 4.5 -78.5075 4.5 -79.1875 4.5 C-79.1875 5.82 -79.1875 7.14 -79.1875 8.5 C-71.9275 8.5 -64.6675 8.5 -57.1875 8.5 C-57.1875 8.83 -57.1875 9.16 -57.1875 9.5 C-58.3940625 9.63277344 -59.600625 9.76554688 -60.84375 9.90234375 C-62.45833664 10.08069925 -64.07291979 10.25908636 -65.6875 10.4375 C-66.87472656 10.56801758 -66.87472656 10.56801758 -68.0859375 10.70117188 C-73.12565103 11.25884509 -78.15760066 11.85972612 -83.1875 12.5 C-83.9375 10.875 -83.9375 10.875 -84.1875 8.5 C-81.7051746 3.73393523 -78.89854785 1.04396584 -74.1875 -1.5 C-50.04722108 -6.40931338 -24.19266804 -2.75925764 0 0 Z " fill="#D4A845" transform="translate(99.1875,135.5)"/>
<path d="M0 0 C1.20269531 -0.00784012 1.20269531 -0.00784012 2.4296875 -0.01583862 C18.2675781 -0.06228688 33.83398492 1.4266722 49.56225586 3.16470337 C69.51515612 5.36336215 89.3078736 6.2822818 109.375 6.375 C108.715 7.365 108.055 8.355 107.375 9.375 C104.40747789 9.76723203 101.64410417 9.96084445 98.6640625 10.02734375 C97.76568161 10.05627716 96.86730072 10.08521057 95.94169617 10.11502075 C92.96125893 10.20091286 89.98118837 10.25914903 87 10.3125 C85.97514496 10.33512909 84.95028992 10.35775818 83.89437866 10.381073 C67.75897777 10.7091345 51.98003308 9.83879812 35.9420166 8.14807129 C12.11008307 5.64006275 -11.72108201 5.44337026 -35.625 7.375 C-35.955 6.055 -36.285 4.735 -36.625 3.375 C-24.73430071 -0.05500941 -12.29513582 0.0716511 0 0 Z " fill="#CBCBCA" transform="translate(52.625,93.625)"/>
<path d="M0 0 C1.11679138 0.00213501 2.23358276 0.00427002 3.38421631 0.00646973 C15.20300063 0.1227652 26.89639987 1.20887643 38.64871216 2.38842773 C67.90913216 5.29467449 95.85306451 6.90391656 125.0390625 2.25 C125.0390625 3.24 125.0390625 4.23 125.0390625 5.25 C123.04033511 5.73444764 121.04000313 6.2122766 119.0390625 6.6875 C117.9253125 6.95433594 116.8115625 7.22117187 115.6640625 7.49609375 C106.32850896 9.43764745 97.03446489 9.52986934 87.5390625 9.5625 C86.7200647 9.56611542 85.90106689 9.56973083 85.05725098 9.57345581 C69.87691097 9.59977401 54.90872051 8.45246661 39.80444336 7.0317688 C15.90912481 4.80621966 -7.97483159 4.42744823 -31.9609375 4.25 C-31.9609375 3.92 -31.9609375 3.59 -31.9609375 3.25 C-21.30456442 1.22937847 -10.85904278 -0.03258623 0 0 Z " fill="#D9C07E" transform="translate(57.9609375,80.75)"/>
<path d="M0 0 C1.91244507 0.18308716 1.91244507 0.18308716 3.86352539 0.36987305 C9.77565967 0.98021665 15.21542881 1.77017851 20.875 3.5625 C22.68075185 3.82292136 24.49419753 4.03805048 26.3125 4.1875 C27.60994141 4.29964844 27.60994141 4.29964844 28.93359375 4.4140625 C29.57425781 4.46304688 30.21492188 4.51203125 30.875 4.5625 C30.875 4.8925 30.875 5.2225 30.875 5.5625 C19.09628751 5.88701555 7.69497714 5.55343861 -4 4.0625 C-16.14756573 2.5665626 -28.14864399 2.25221537 -40.375 2.25 C-41.68739655 2.24516602 -41.68739655 2.24516602 -43.02630615 2.24023438 C-45.54381386 2.23454844 -48.0606767 2.24482812 -50.578125 2.26171875 C-51.32291107 2.26092819 -52.06769714 2.26013763 -52.83505249 2.25932312 C-58.34277104 2.33223764 -64.44917821 2.6635297 -69.0625 5.9375 C-70.27068849 7.78531769 -70.63663093 9.42423544 -71.125 11.5625 C-70.01060547 11.23652832 -68.89621094 10.91055664 -67.74804688 10.57470703 C-62.85073377 9.35602144 -58.18004511 9.30808335 -53.15625 9.3671875 C-51.77487854 9.37143234 -51.77487854 9.37143234 -50.36560059 9.37576294 C-47.45192948 9.38687225 -44.53857669 9.41195922 -41.625 9.4375 C-39.6380253 9.44754177 -37.65104574 9.45666552 -35.6640625 9.46484375 C-30.81758748 9.48678121 -25.97134753 9.52124639 -21.125 9.5625 C-21.125 9.8925 -21.125 10.2225 -21.125 10.5625 C-22.45337891 10.592229 -22.45337891 10.592229 -23.80859375 10.62255859 C-49.8721001 10.4093818 -49.8721001 10.4093818 -75.125 15.5625 C-74.69077288 10.13466103 -73.65157136 6.75626054 -70.125 2.5625 C-64.89796149 -0.76973705 -59.84508587 -1.21967933 -53.8125 -1.6875 C-52.80195557 -1.76830811 -51.79141113 -1.84911621 -50.75024414 -1.93237305 C-33.77604948 -3.10944912 -16.89569779 -1.63175847 0 0 Z " fill="#C9A35B" transform="translate(89.125,33.4375)"/>
<path d="M0 0 C-3.11910856 1.79275866 -5.67682428 2.34290718 -9.25 2.625 C-10.14203125 2.69976562 -11.0340625 2.77453125 -11.953125 2.8515625 C-12.62859375 2.90054688 -13.3040625 2.94953125 -14 3 C-14 3.66 -14 4.32 -14 5 C-17.3 5.33 -20.6 5.66 -24 6 C-24 6.66 -24 7.32 -24 8 C-24.66 8 -25.32 8 -26 8 C-26 9.32 -26 10.64 -26 12 C-25.37158203 11.93143799 -24.74316406 11.86287598 -24.09570312 11.79223633 C-13.90693238 10.8050003 -3.72781546 10.71618492 6.5 10.6875 C7.94962128 10.68257538 7.94962128 10.68257538 9.42852783 10.67755127 C24.0223769 10.66166852 38.23407989 11.56988108 52.69824219 13.4296875 C65.6496611 15.08207847 78.57890094 15.82893034 91.61865234 16.40380859 C92.38778961 16.43822556 93.15692688 16.47264252 93.94937134 16.50810242 C95.37236929 16.57044296 96.79552349 16.62936869 98.21884155 16.68391418 C102.86298635 16.87966344 107.39829386 17.37694563 112 18 C112 18.33 112 18.66 112 19 C92.19267096 19.67520264 72.94381679 18.68978342 53.25 16.5 C25.54262965 13.4476175 -2.288951 12.01074873 -30 16 C-29.67 17.65 -29.34 19.3 -29 21 C-29.99 20.67 -30.98 20.34 -32 20 C-31.28045815 13.83427067 -30.23929856 8.88999076 -25.82421875 4.3359375 C-22.4915497 1.89531048 -19.03307404 1.43950166 -15 1 C-14.13375 0.89171875 -13.2675 0.7834375 -12.375 0.671875 C-8.22894089 0.20297546 -4.17412955 -0.04440563 0 0 Z " fill="#E9E4B2" transform="translate(46,81)"/>
<path d="M0 0 C0 2.31 0 4.62 0 7 C-0.66 7.33 -1.32 7.66 -2 8 C-2.33 8.99 -2.66 9.98 -3 11 C-3.66 11 -4.32 11 -5 11 C-5 11.66 -5 12.32 -5 13 C-12.53956853 17.09701035 -21.00372976 17.29769457 -29.40625 17.23046875 C-30.8525177 17.22978142 -30.8525177 17.22978142 -32.32800293 17.2290802 C-34.35832965 17.22607803 -36.3886545 17.21825343 -38.41894531 17.20581055 C-41.46427966 17.18771228 -44.50930525 17.18530041 -47.5546875 17.18554688 C-63.50544281 17.15779345 -79.3091252 16.72085352 -95.125 14.5 C-104.41735597 13.26245965 -113.63339962 12.39945796 -123 12 C-123 11.67 -123 11.34 -123 11 C-113.72862468 9.67374409 -105.06323388 10.48747991 -95.85418701 11.63519287 C-78.68727173 13.72849235 -61.66219558 14.40331239 -44.375 14.375 C-43.30868347 14.37635956 -42.24236694 14.37771912 -41.14373779 14.37911987 C-29.59787499 14.37744827 -18.3784109 14.15468274 -7 12 C-7 11.34 -7 10.68 -7 10 C-6.34 10 -5.68 10 -5 10 C-4.34 8.02 -3.68 6.04 -3 4 C-3.73943848 4.21438721 -4.47887695 4.42877441 -5.24072266 4.6496582 C-16.93772891 7.62369347 -28.38431927 7.33799876 -40.375 7.1875 C-42.47915704 7.17241934 -44.58332459 7.15873695 -46.6875 7.14648438 C-51.79193077 7.11376202 -56.89584642 7.06216802 -62 7 C-62 6.67 -62 6.34 -62 6 C-61.13197754 5.97494385 -60.26395508 5.9498877 -59.36962891 5.92407227 C-56.15286837 5.82900516 -52.93627151 5.72976797 -49.71972656 5.62768555 C-48.3268741 5.58434154 -46.93396869 5.54266604 -45.54101562 5.50268555 C-43.54023349 5.44497068 -41.53964141 5.38078131 -39.5390625 5.31640625 C-38.33459473 5.27974854 -37.13012695 5.24309082 -35.88916016 5.20532227 C-33.06003633 5.18947013 -33.06003633 5.18947013 -31 4 C-29.23737562 3.72216938 -27.46747284 3.4897741 -25.6953125 3.28125 C-24.10783203 3.08982422 -24.10783203 3.08982422 -22.48828125 2.89453125 C-20.82345703 2.69923828 -20.82345703 2.69923828 -19.125 2.5 C-16.93983293 2.24186915 -14.75492409 1.98154046 -12.5703125 1.71875 C-11.59852051 1.60466797 -10.62672852 1.49058594 -9.62548828 1.37304688 C-7.06086654 1.05583961 -7.06086654 1.05583961 -4.83935547 0.45507812 C-3 0 -3 0 0 0 Z " fill="#E7DB99" transform="translate(185,33)"/>
<path d="M0 0 C2.328125 -0.35644531 2.328125 -0.35644531 5.25 -0.328125 C6.86140869 -0.32171997 6.86140869 -0.32171997 8.50537109 -0.31518555 C9.65859863 -0.29367432 10.81182617 -0.27216309 12 -0.25 C13.77044678 -0.23030151 13.77044678 -0.23030151 15.57666016 -0.21020508 C19.0519453 -0.16172043 22.52549188 -0.08730179 26 0 C26.88010742 0.02078613 27.76021484 0.04157227 28.66699219 0.06298828 C38.00294637 0.32414738 47.07020358 1.38262634 56.29003906 2.83862305 C69.1065556 4.83830257 81.91736493 5.9335194 94.8828125 6.2734375 C95.65428619 6.29375031 96.42575989 6.31406311 97.22061157 6.33499146 C101.0976392 6.43260955 104.97423155 6.51267768 108.85205078 6.57080078 C110.28157602 6.59925866 111.71110078 6.62774061 113.140625 6.65625 C114.41454102 6.67494141 115.68845703 6.69363281 117.00097656 6.71289062 C120 7 120 7 122 9 C101.45055327 9.34202305 81.4636781 8.98354106 61.04296875 6.38476562 C40.09139807 3.73556189 19.08881064 3.40347235 -2 3 C-1.34 2.01 -0.68 1.02 0 0 Z " fill="#E5D997" transform="translate(36,143)"/>
<path d="M0 0 C0.99 0.33 1.98 0.66 3 1 C1.1549593 13.39433223 1.1549593 13.39433223 -2 17 C-17.76115294 27.37929584 -45.93345474 23.6033701 -64 22 C-64 21.67 -64 21.34 -64 21 C-62.7632251 20.97494385 -61.5264502 20.9498877 -60.25219727 20.92407227 C-55.68063287 20.83017747 -51.10922682 20.72991371 -46.5378418 20.62768555 C-44.55610854 20.58426856 -42.57433622 20.54259863 -40.5925293 20.50268555 C-37.7503683 20.44514617 -34.90840517 20.38140555 -32.06640625 20.31640625 C-30.72891075 20.29133751 -30.72891075 20.29133751 -29.36439514 20.26576233 C-25.36051605 20.563413 -25.36051605 20.563413 -22 19 C-25.63 18.34 -29.26 17.68 -33 17 C-33 16.67 -33 16.34 -33 16 C-32.33468262 15.91959473 -31.66936523 15.83918945 -30.98388672 15.75634766 C-27.94677052 15.38563227 -24.91091725 15.00540409 -21.875 14.625 C-20.82828125 14.49867187 -19.7815625 14.37234375 -18.703125 14.2421875 C-11.13554848 13.42648779 -11.13554848 13.42648779 -4 11 C-2.44467841 8.9522052 -2.44467841 8.9522052 -1.625 6.5 C-1.14933594 5.30890625 -1.14933594 5.30890625 -0.6640625 4.09375 C0.10077423 2.04835403 0.10077423 2.04835403 0 0 Z " fill="#CFCFCD" transform="translate(183,82)"/>
<path d="M0 0 C-3.12979911 4.18478757 -7.90224145 4.30162298 -12.7097168 5.07128906 C-22.20375634 6.34690289 -31.75154912 6.26533442 -41.3125 6.25 C-42.12820465 6.24922455 -42.9439093 6.2484491 -43.78433228 6.24765015 C-71.38690205 6.17184839 -71.38690205 6.17184839 -80 3 C-80 2.67 -80 2.34 -80 2 C-79.03638298 2.00999275 -79.03638298 2.00999275 -78.05329895 2.02018738 C-71.25392765 2.08752124 -64.45465374 2.13219845 -57.6550293 2.16479492 C-55.13090151 2.17970971 -52.60679882 2.2000487 -50.08276367 2.22631836 C-36.66693585 2.36226257 -23.59948117 2.29571382 -10.352005 -0.03022766 C-9.56641708 -0.16809189 -8.78082916 -0.30595612 -7.97143555 -0.44799805 C-7.2959819 -0.57772507 -6.62052826 -0.70745209 -5.92460632 -0.84111023 C-3.73914284 -1.02153559 -2.08609159 -0.63650279 0 0 Z " fill="#AE7928" transform="translate(184,84)"/>
<path d="M0 0 C0.25 6.625 0.25 6.625 -2 10 C-3.515625 11.3515625 -3.515625 11.3515625 -5.25 12.625 C-5.81203125 13.05039063 -6.3740625 13.47578125 -6.953125 13.9140625 C-11.72980354 16.44825455 -17.09605324 16.11230138 -22.375 16.0625 C-24.24285156 16.04896484 -24.24285156 16.04896484 -26.1484375 16.03515625 C-27.55996094 16.01775391 -27.55996094 16.01775391 -29 16 C-29 15.67 -29 15.34 -29 15 C-28.42032471 14.93530518 -27.84064941 14.87061035 -27.2434082 14.80395508 C-24.59662784 14.49575926 -21.95511797 14.15448585 -19.3125 13.8125 C-18.40048828 13.71130859 -17.48847656 13.61011719 -16.54882812 13.50585938 C-12.04893519 12.90041924 -9.55675792 12.43820871 -5.91796875 9.57421875 C-3.85429872 7.08493743 -3.85429872 7.08493743 -3 4 C-3.79164551 4.21438721 -4.58329102 4.42877441 -5.39892578 4.6496582 C-15.68728012 7.17145763 -25.34331885 7.35518849 -35.875 7.1875 C-37.54556069 7.1724075 -39.21613475 7.15872727 -40.88671875 7.14648438 C-44.924818 7.11388235 -48.96225521 7.06236023 -53 7 C-49.54367033 4.91461967 -46.64440513 4.66497711 -42.64453125 4.47265625 C-41.38930664 4.4041748 -40.13408203 4.33569336 -38.84082031 4.26513672 C-38.18198853 4.23224548 -37.52315674 4.19935425 -36.84436035 4.16546631 C-24.64314236 3.54715887 -11.99870662 0 0 0 Z " fill="#C09547" transform="translate(185,135)"/>
<path d="M0 0 C0.9237442 0.00424484 1.8474884 0.00848969 2.79922485 0.01286316 C5.7336408 0.02958202 8.66735606 0.06722159 11.6015625 0.10546875 C13.59764629 0.12052437 15.59374091 0.13421124 17.58984375 0.14648438 C22.46901772 0.1794633 27.34767153 0.23119861 32.2265625 0.29296875 C32.2265625 0.62296875 32.2265625 0.95296875 32.2265625 1.29296875 C31.07208618 1.32269775 31.07208618 1.32269775 29.89428711 1.35302734 C5.5232503 0.07677555 5.5232503 0.07677555 -15.7734375 8.29296875 C-16.42919596 10.36769897 -16.42919596 10.36769897 -16.7734375 12.29296875 C-15.65904297 11.96699707 -14.54464844 11.64102539 -13.39648438 11.30517578 C-8.49917127 10.08649019 -3.82848261 10.0385521 1.1953125 10.09765625 C2.57668396 10.10190109 2.57668396 10.10190109 3.98596191 10.10623169 C6.89963302 10.117341 9.81298581 10.14242797 12.7265625 10.16796875 C14.7135372 10.17801052 16.70051676 10.18713427 18.6875 10.1953125 C23.53397502 10.21724996 28.38021497 10.25171514 33.2265625 10.29296875 C33.2265625 10.62296875 33.2265625 10.95296875 33.2265625 11.29296875 C31.89818359 11.32269775 31.89818359 11.32269775 30.54296875 11.35302734 C4.4794624 11.13985055 4.4794624 11.13985055 -20.7734375 16.29296875 C-20.33921038 10.86512978 -19.30000886 7.48672929 -15.7734375 3.29296875 C-10.53377694 -0.12659388 -6.03524527 -0.1052671 0 0 Z " fill="#B98832" transform="translate(34.7734375,32.70703125)"/>
<path d="M0 0 C10.75927029 -0.32787844 21.1940229 -0.01615598 31.875 1.375 C44.92593559 3.06897698 57.96563346 3.75500003 71.10498047 4.35302734 C71.89918396 4.38986633 72.69338745 4.42670532 73.51165771 4.46466064 C74.99559902 4.53257082 76.47968608 4.59740387 77.96392822 4.65838623 C82.69222694 4.87059224 87.31444065 5.36454765 92 6 C92 6.33 92 6.66 92 7 C70.1005408 7.94750267 48.64556736 6.35147549 26.875 4 C26.21055122 3.9282531 25.54610245 3.8565062 24.86151886 3.78258514 C16.5709668 2.88460714 8.28401514 1.95633577 0 1 C0 0.67 0 0.34 0 0 Z " fill="#DCC16C" transform="translate(66,93)"/>
<path d="M0 0 C0 2.31 0 4.62 0 7 C-0.66 7.33 -1.32 7.66 -2 8 C-2.33 8.99 -2.66 9.98 -3 11 C-3.66 11 -4.32 11 -5 11 C-5 11.66 -5 12.32 -5 13 C-6.98 13.33 -8.96 13.66 -11 14 C-9.68 13.34 -8.36 12.68 -7 12 C-7 11.34 -7 10.68 -7 10 C-6.34 10 -5.68 10 -5 10 C-4.34 8.02 -3.68 6.04 -3 4 C-3.73943848 4.21438721 -4.47887695 4.42877441 -5.24072266 4.6496582 C-16.93772891 7.62369347 -28.38431927 7.33799876 -40.375 7.1875 C-42.47915704 7.17241934 -44.58332459 7.15873695 -46.6875 7.14648438 C-51.79193077 7.11376202 -56.89584642 7.06216802 -62 7 C-62 6.67 -62 6.34 -62 6 C-61.13197754 5.97494385 -60.26395508 5.9498877 -59.36962891 5.92407227 C-56.15286837 5.82900516 -52.93627151 5.72976797 -49.71972656 5.62768555 C-48.3268741 5.58434154 -46.93396869 5.54266604 -45.54101562 5.50268555 C-43.54023349 5.44497068 -41.53964141 5.38078131 -39.5390625 5.31640625 C-38.33459473 5.27974854 -37.13012695 5.24309082 -35.88916016 5.20532227 C-33.06003633 5.18947013 -33.06003633 5.18947013 -31 4 C-29.23737562 3.72216938 -27.46747284 3.4897741 -25.6953125 3.28125 C-24.10783203 3.08982422 -24.10783203 3.08982422 -22.48828125 2.89453125 C-21.37839844 2.76433594 -20.26851562 2.63414063 -19.125 2.5 C-16.93983293 2.24186915 -14.75492409 1.98154046 -12.5703125 1.71875 C-11.11262451 1.54762695 -11.11262451 1.54762695 -9.62548828 1.37304688 C-7.06086654 1.05583961 -7.06086654 1.05583961 -4.83935547 0.45507812 C-3 0 -3 0 0 0 Z " fill="#E4C05B" transform="translate(185,33)"/>
<path d="M0 0 C2.328125 -0.35644531 2.328125 -0.35644531 5.25 -0.328125 C6.32507813 -0.32377441 7.40015625 -0.31942383 8.5078125 -0.31494141 C9.66023438 -0.29351074 10.81265625 -0.27208008 12 -0.25 C13.75957031 -0.23138916 13.75957031 -0.23138916 15.5546875 -0.21240234 C42.21400012 0.14854842 42.21400012 0.14854842 54 3 C54 3.33 54 3.66 54 4 C41.28178744 4.06921476 28.5876505 3.86532014 15.875 3.5 C14.12630833 3.45159668 12.37761041 3.40341867 10.62890625 3.35546875 C6.41919466 3.23956074 2.20957799 3.12065874 -2 3 C-1.34 2.01 -0.68 1.02 0 0 Z " fill="#DDCC8E" transform="translate(36,143)"/>
<path d="M0 0 C0.86052979 0.03029297 1.72105957 0.06058594 2.60766602 0.09179688 C5.87859703 0.20568266 9.14959266 0.31720008 12.4206543 0.42724609 C13.82172721 0.47483754 15.22277072 0.52330459 16.6237793 0.57275391 C26.42101882 0.91775192 36.19629043 1.06374669 46 1 C45.34 1.66 44.68 2.32 44 3 C45.98 3.33 47.96 3.66 50 4 C50 4.33 50 4.66 50 5 C44.80794615 5.02498397 39.61592839 5.04299248 34.42382812 5.05493164 C32.6627542 5.05991642 30.90168432 5.06670666 29.140625 5.07543945 C19.37648855 5.12259579 9.71948604 5.09018514 0 4 C0.66 3.34 1.32 2.68 2 2 C1.34 1.34 0.68 0.68 0 0 Z " fill="#EAD697" transform="translate(108,36)"/>
<path d="M0 0 C2.05893621 0.22325814 4.12233653 0.40705759 6.1875 0.5625 C7.27417969 0.64628906 8.36085937 0.73007813 9.48046875 0.81640625 C10.72763672 0.90728516 10.72763672 0.90728516 12 1 C12 1.33 12 1.66 12 2 C-5.16 2.33 -22.32 2.66 -40 3 C-40 2.67 -40 2.34 -40 2 C-9.760707 -3.253569 -9.760707 -3.253569 0 0 Z " fill="#E6C965" transform="translate(66,82)"/>
<path d="M0 0 C-3.00617269 3.00617269 -5.82381598 2.59585316 -10 3 C-10 3.66 -10 4.32 -10 5 C-10.66 5 -11.32 5 -12 5 C-12 6.32 -12 7.64 -12 9 C-4.74 9 2.52 9 10 9 C10 9.33 10 9.66 10 10 C8.7934375 10.13277344 7.586875 10.26554688 6.34375 10.40234375 C4.72916336 10.58069925 3.11458021 10.75908636 1.5 10.9375 C0.31277344 11.06801758 0.31277344 11.06801758 -0.8984375 11.20117188 C-5.93815103 11.75884509 -10.97010066 12.35972612 -16 13 C-16.75 11.375 -16.75 11.375 -17 9 C-12.62119205 1.45033113 -12.62119205 1.45033113 -8.75 0.375 C-5.80063445 -0.02718621 -2.97313551 -0.06914269 0 0 Z " fill="#CCA858" transform="translate(32,135)"/>
<path d="M0 0 C0.99 0.33 1.98 0.66 3 1 C2.34 4.63 1.68 8.26 1 12 C0.01 12 -0.98 12 -2 12 C-2.721875 12.45375 -3.44375 12.9075 -4.1875 13.375 C-10.62702549 17.09561473 -17.26121603 17.27826416 -24.5 17.125 C-25.73363281 17.11146484 -25.73363281 17.11146484 -26.9921875 17.09765625 C-28.99492083 17.07436865 -30.99750154 17.03850959 -33 17 C-33 16.67 -33 16.34 -33 16 C-32.33468262 15.91959473 -31.66936523 15.83918945 -30.98388672 15.75634766 C-27.94677052 15.38563227 -24.91091725 15.00540409 -21.875 14.625 C-20.82828125 14.49867187 -19.7815625 14.37234375 -18.703125 14.2421875 C-11.13554848 13.42648779 -11.13554848 13.42648779 -4 11 C-2.44467841 8.9522052 -2.44467841 8.9522052 -1.625 6.5 C-1.14933594 5.30890625 -1.14933594 5.30890625 -0.6640625 4.09375 C0.10077423 2.04835403 0.10077423 2.04835403 0 0 Z " fill="#ECE9B7" transform="translate(183,82)"/>
<path d="M0 0 C0 0.99 0 1.98 0 3 C-13.53 3 -27.06 3 -41 3 C-37.06478661 -0.93521339 -30.58718204 -0.25219129 -25.25 -0.5625 C-24.54625244 -0.6042334 -23.84250488 -0.6459668 -23.11743164 -0.68896484 C-15.27169255 -1.12978724 -7.75492864 -1.34868324 0 0 Z " fill="#D6BB72" transform="translate(64,133)"/>
<path d="M0 0 C15.84 0.495 15.84 0.495 32 1 C32 1.33 32 1.66 32 2 C28.7 2.33 25.4 2.66 22 3 C29.26 3.33 36.52 3.66 44 4 C44 4.33 44 4.66 44 5 C39.58334775 5.02945039 35.16672133 5.04694816 30.75 5.0625 C29.51507813 5.07087891 28.28015625 5.07925781 27.0078125 5.08789062 C19.28308496 5.10821886 11.68498153 4.79005315 4 4 C4 3.34 4 2.68 4 2 C2.68 1.34 1.36 0.68 0 0 Z " fill="#CBAB6B" transform="translate(114,138)"/>
<path d="M0 0 C-1.16796875 1.4921875 -1.16796875 1.4921875 -3 3 C-5.48828125 3.2578125 -5.48828125 3.2578125 -8.3125 3.125 C-11.21325885 3.00362934 -13.76561062 2.9559307 -16.62426758 3.4934082 C-20.74932976 4.11245095 -24.73477692 4.12451063 -28.8984375 4.09765625 C-29.73339752 4.0962413 -30.56835754 4.09482635 -31.42861938 4.09336853 C-34.07745042 4.08780174 -36.7261948 4.07525547 -39.375 4.0625 C-41.17838419 4.0574807 -42.98176971 4.05291855 -44.78515625 4.04882812 C-49.19013721 4.0378432 -53.59505394 4.02060163 -58 4 C-58 3.34 -58 2.68 -58 2 C-57.11030518 2.01571045 -56.22061035 2.0314209 -55.30395508 2.04760742 C-39.2594735 2.29291689 -23.6761868 2.43091902 -7.82421875 -0.44140625 C-4.44343166 -0.93522908 -3.09488936 -0.94009463 0 0 Z " fill="#BA9154" transform="translate(184,84)"/>
<path d="M0 0 C1.02421555 0.03185898 1.02421555 0.03185898 2.06912231 0.06436157 C3.5062991 0.11037667 4.94338597 0.15928223 6.38037109 0.2109375 C8.55679269 0.28858019 10.73335139 0.35595594 12.91015625 0.421875 C19.56572939 0.641035 26.09549247 1.01952785 32.6953125 1.9140625 C32.6953125 2.2440625 32.6953125 2.5740625 32.6953125 2.9140625 C28.07292052 2.93909211 23.45056942 2.95707571 18.828125 2.96899414 C17.2610607 2.9739715 15.69400092 2.98075579 14.12695312 2.98950195 C4.92676197 3.03950299 -4.14343942 2.90552505 -13.3046875 1.9140625 C-13.3046875 1.5840625 -13.3046875 1.2540625 -13.3046875 0.9140625 C-8.77779288 0.01459313 -4.60866623 -0.14931394 0 0 Z " fill="#E1D085" transform="translate(125.3046875,97.0859375)"/>
<path d="M0 0 C3.77081636 -0.0294985 7.54160231 -0.04696364 11.3125 -0.0625 C12.36501953 -0.07087891 13.41753906 -0.07925781 14.50195312 -0.08789062 C21.39311686 -0.10909421 28.15030513 0.24328318 35 1 C35 1.33 35 1.66 35 2 C34.09507813 2.09087891 34.09507813 2.09087891 33.171875 2.18359375 C31.97304687 2.30927734 31.97304687 2.30927734 30.75 2.4375 C29.96109375 2.51871094 29.1721875 2.59992188 28.359375 2.68359375 C26.05773066 2.93484191 26.05773066 2.93484191 24.11425781 3.53662109 C20.39460013 4.35185323 16.7479589 3.62755588 13 3.1875 C12.19304687 3.10435547 11.38609375 3.02121094 10.5546875 2.93554688 C9.77351563 2.84724609 8.99234375 2.75894531 8.1875 2.66796875 C7.47980469 2.58828857 6.77210937 2.5086084 6.04296875 2.42651367 C3.78024143 1.95412067 2.01730252 1.11206635 0 0 Z " fill="#D0A84E" transform="translate(80,84)"/>
<path d="M0 0 C0.9237442 0.00141495 1.8474884 0.0028299 2.79922485 0.00428772 C5.73337112 0.00986016 8.66743951 0.02240756 11.6015625 0.03515625 C13.59765514 0.04017481 15.59374899 0.0447371 17.58984375 0.04882812 C22.46877975 0.05982056 27.34765795 0.07706615 32.2265625 0.09765625 C32.2265625 0.42765625 32.2265625 0.75765625 32.2265625 1.09765625 C30.8353418 1.13524048 30.8353418 1.13524048 29.41601562 1.17358398 C25.94195711 1.26928987 22.4680333 1.36848535 18.99414062 1.4699707 C17.49678376 1.51301488 15.99938737 1.55470826 14.50195312 1.5949707 C12.33711894 1.65342123 10.17247816 1.71689078 8.0078125 1.78125 C6.0597168 1.83623657 6.0597168 1.83623657 4.07226562 1.89233398 C0.07335539 2.10583598 -3.8048802 2.57398335 -7.7734375 3.09765625 C-9.4391844 3.15680919 -11.10684406 3.18619677 -12.7734375 3.16015625 C-13.5365625 3.15113281 -14.2996875 3.14210937 -15.0859375 3.1328125 C-15.92125 3.11541016 -15.92125 3.11541016 -16.7734375 3.09765625 C-16.4434375 2.43765625 -16.1134375 1.77765625 -15.7734375 1.09765625 C-10.5819491 -0.2128818 -5.31642182 -0.03090978 0 0 Z " fill="#C49E50" transform="translate(35.7734375,42.90234375)"/>
<path d="M0 0 C0 2.31 0 4.62 0 7 C-0.99 7.495 -0.99 7.495 -2 8 C-2.33 8.99 -2.66 9.98 -3 11 C-3.66 11 -4.32 11 -5 11 C-5 11.66 -5 12.32 -5 13 C-6.98 13.33 -8.96 13.66 -11 14 C-9.68 13.34 -8.36 12.68 -7 12 C-7 11.34 -7 10.68 -7 10 C-6.34 10 -5.68 10 -5 10 C-4.34 8.02 -3.68 6.04 -3 4 C-3.495 4.165 -3.99 4.33 -4.5 4.5 C-8.03444089 5.20688818 -11.39690701 5.06005155 -15 5 C-11.91190305 3.23537317 -10.76687864 3 -7 3 C-7 2.34 -7 1.68 -7 1 C-4.50935112 0.31292445 -2.62113708 0 0 0 Z " fill="#D0A74D" transform="translate(185,33)"/>
<path d="M0 0 C2.45895618 0.30811738 4.91708307 0.62128988 7.375 0.9375 C8.07367188 1.02451172 8.77234375 1.11152344 9.4921875 1.20117188 C14.7734375 1.88671875 14.7734375 1.88671875 17 3 C18.70363822 3.22622081 20.41328701 3.40888473 22.125 3.5625 C23.03507812 3.64628906 23.94515625 3.73007812 24.8828125 3.81640625 C25.58148438 3.87699219 26.28015625 3.93757813 27 4 C27 4.33 27 4.66 27 5 C23.54168516 5.02949232 20.08340346 5.0469616 16.625 5.0625 C15.65949219 5.07087891 14.69398437 5.07925781 13.69921875 5.08789062 C7.40175711 5.10902305 1.25160137 4.76107198 -5 4 C-5 3.67 -5 3.34 -5 3 C-3.35 2.67 -1.7 2.34 0 2 C0 1.34 0 0.68 0 0 Z " fill="#E1C267" transform="translate(93,34)"/>
<path d="M0 0 C0.33 0 0.66 0 1 0 C1.25 6.625 1.25 6.625 -1 10 C-2.515625 11.3515625 -2.515625 11.3515625 -4.25 12.625 C-4.81203125 13.05039063 -5.3740625 13.47578125 -5.953125 13.9140625 C-10.72980354 16.44825455 -16.09605324 16.11230138 -21.375 16.0625 C-23.24285156 16.04896484 -23.24285156 16.04896484 -25.1484375 16.03515625 C-26.55996094 16.01775391 -26.55996094 16.01775391 -28 16 C-28 15.67 -28 15.34 -28 15 C-27.42032471 14.93530518 -26.84064941 14.87061035 -26.2434082 14.80395508 C-23.59662784 14.49575926 -20.95511797 14.15448585 -18.3125 13.8125 C-17.40048828 13.71130859 -16.48847656 13.61011719 -15.54882812 13.50585938 C-11.07933758 12.90450974 -8.52679963 12.39591773 -4.85546875 9.63671875 C-2.61633773 6.99215165 -2.61633773 6.99215165 -3 3 C-2.34 3 -1.68 3 -1 3 C-0.67 2.01 -0.34 1.02 0 0 Z " fill="#C09A54" transform="translate(184,135)"/>
<path d="M0 0 C12.76945698 0.43435929 25.35210155 1.13361957 38 3 C38 3.33 38 3.66 38 4 C24.92690067 4.35249646 12.75721684 4.07050491 0 1 C0 0.67 0 0.34 0 0 Z " fill="#C89935" transform="translate(92,137)"/>
<path d="M0 0 C5.28 0.33 10.56 0.66 16 1 C16 1.66 16 2.32 16 3 C17.32 3.33 18.64 3.66 20 4 C10.9280648 4.09471858 2.01814321 4.14516104 -7 3 C-7 2.67 -7 2.34 -7 2 C-3.535 1.505 -3.535 1.505 0 1 C0 0.67 0 0.34 0 0 Z " fill="#D4B057" transform="translate(77,33)"/>
<path d="M0 0 C-7.29527068 1.77625723 -14.13398378 2.25501764 -21.625 2.125 C-23.13126953 2.11146484 -23.13126953 2.11146484 -24.66796875 2.09765625 C-27.11224126 2.07437746 -29.55598408 2.04168487 -32 2 C-27.00649518 -0.88245355 -21.63817545 -0.79788216 -16 -1.25 C-14.906875 -1.353125 -13.81375 -1.45625 -12.6875 -1.5625 C-11.635625 -1.65015625 -10.58375 -1.7378125 -9.5 -1.828125 C-8.5409375 -1.9096582 -7.581875 -1.99119141 -6.59375 -2.07519531 C-3.83117243 -1.99510553 -2.33606215 -1.42560396 0 0 Z " fill="#E0C873" transform="translate(176,48)"/>
<path d="M0 0 C7.26 0 14.52 0 22 0 C22 0.66 22 1.32 22 2 C15.03425291 4.08305834 6.65166268 3.95629452 0 1 C0 0.67 0 0.34 0 0 Z " fill="#B98A32" transform="translate(104,86)"/>
<path d="M0 0 C-3.11910856 1.79275866 -5.67682428 2.34290718 -9.25 2.625 C-10.14203125 2.69976562 -11.0340625 2.77453125 -11.953125 2.8515625 C-12.62859375 2.90054688 -13.3040625 2.94953125 -14 3 C-14 3.66 -14 4.32 -14 5 C-17.3 5.33 -20.6 5.66 -24 6 C-24 6.66 -24 7.32 -24 8 C-24.66 8 -25.32 8 -26 8 C-26 8.66 -26 9.32 -26 10 C-26.66 10 -27.32 10 -28 10 C-27.43049014 6.6968428 -26.56596832 5.15002368 -24 3 C-16.56133125 0.29226373 -7.84862394 -0.083496 0 0 Z " fill="#EBDD9B" transform="translate(46,81)"/>
<path d="M0 0 C2.78377865 -0.08463171 5.30589286 -0.00054737 8.0625 0.25 C8.82876709 0.30792725 9.59503418 0.36585449 10.38452148 0.42553711 C15.60253001 0.83321995 20.80783898 1.33917951 26 2 C22.6853333 4.02907167 20.5684021 4.12742133 16.75 3.625 C15.85796875 3.51414063 14.9659375 3.40328125 14.046875 3.2890625 C13.37140625 3.19367188 12.6959375 3.09828125 12 3 C12 3.33 12 3.66 12 4 C7.1666528 4.08333357 2.76307437 3.95261487 -2 3 C-1.34 2.01 -0.68 1.02 0 0 Z " fill="#D1B064" transform="translate(86,135)"/>
<path d="M0 0 C0 1.65 0 3.3 0 5 C-0.33 4.34 -0.66 3.68 -1 3 C-1.51046875 3.2165625 -2.0209375 3.433125 -2.546875 3.65625 C-9.11148247 6.17035499 -15.02489733 6.31865951 -22 6 C-22 5.67 -22 5.34 -22 5 C-13.585 4.01 -13.585 4.01 -5 3 C-5 2.34 -5 1.68 -5 1 C-1.125 0 -1.125 0 0 0 Z " fill="#B07B28" transform="translate(184,135)"/>
<path d="M0 0 C-0.33 0.99 -0.66 1.98 -1 3 C-4.3 3.33 -7.6 3.66 -11 4 C-10.67 2.68 -10.34 1.36 -10 0 C-6.7169902 -1.6415049 -3.57454967 -0.51888624 0 0 Z " fill="#D0CECD" transform="translate(25,48)"/>
<path d="M0 0 C7.92 0 15.84 0 24 0 C24 0.33 24 0.66 24 1 C23.09507813 1.09087891 23.09507813 1.09087891 22.171875 1.18359375 C20.97304687 1.30927734 20.97304687 1.30927734 19.75 1.4375 C18.96109375 1.51871094 18.1721875 1.59992188 17.359375 1.68359375 C15.04459403 1.92864263 15.04459403 1.92864263 13.0625 2.59375 C10.26222306 3.1453197 8.0358876 2.62631059 5.25 2.0625 C4.26515625 1.86785156 3.2803125 1.67320313 2.265625 1.47265625 C1.51796875 1.31667969 0.7703125 1.16070312 0 1 C0 0.67 0 0.34 0 0 Z " fill="#C99E48" transform="translate(91,85)"/>
<path d="M0 0 C0.73605469 0.09990234 1.47210938 0.19980469 2.23046875 0.30273438 C4.02974077 0.54808965 5.82754131 0.80419537 7.625 1.0625 C7.625 1.3925 7.625 1.7225 7.625 2.0625 C0.365 2.0625 -6.895 2.0625 -14.375 2.0625 C-14.375 1.4025 -14.375 0.7425 -14.375 0.0625 C-9.30046589 -1.08207157 -5.06644304 -0.73752019 0 0 Z " fill="#DFB949" transform="translate(70.375,81.9375)"/>
<path d="M0 0 C-0.56371414 3.26954202 -1.49962266 4.82575883 -4 7 C-4.66 6.34 -5.32 5.68 -6 5 C-6 4.34 -6 3.68 -6 3 C-6.66 2.34 -7.32 1.68 -8 1 C-5.10765685 0.17361624 -3.11257569 0 0 0 Z " fill="#CAC2B3" transform="translate(182,139)"/>
<path d="M0 0 C0.33 0.66 0.66 1.32 1 2 C1.66 2 2.32 2 3 2 C3 3.32 3 4.64 3 6 C2.01 5.67 1.02 5.34 0 5 C0 7.64 0 10.28 0 13 C-0.99 12.67 -1.98 12.34 -3 12 C-2.69106068 10.3743193 -2.3777305 8.74947252 -2.0625 7.125 C-1.88847656 6.22007813 -1.71445313 5.31515625 -1.53515625 4.3828125 C-1 2 -1 2 0 0 Z " fill="#E9E4C0" transform="translate(17,89)"/>
<path d="M0 0 C0.99773438 0.02320312 1.99546875 0.04640625 3.0234375 0.0703125 C4.52777344 0.09738281 4.52777344 0.09738281 6.0625 0.125 C6.83335938 0.14820312 7.60421875 0.17140625 8.3984375 0.1953125 C8.3984375 0.5253125 8.3984375 0.8553125 8.3984375 1.1953125 C5.0984375 1.5253125 1.7984375 1.8553125 -1.6015625 2.1953125 C-1.6015625 2.8553125 -1.6015625 3.5153125 -1.6015625 4.1953125 C-2.2615625 4.1953125 -2.9215625 4.1953125 -3.6015625 4.1953125 C-3.6015625 4.8553125 -3.6015625 5.5153125 -3.6015625 6.1953125 C-4.2615625 6.1953125 -4.9215625 6.1953125 -5.6015625 6.1953125 C-4.84252152 2.40010759 -4.24028239 0.31833952 0 0 Z " fill="#EEDC85" transform="translate(23.6015625,84.8046875)"/>
<path d="M0 0 C2.22189824 2.22189824 2.92598892 4.08482708 4 7 C2.02 7.66 0.04 8.32 -2 9 C-1.125 2.25 -1.125 2.25 0 0 Z " fill="#BA9355" transform="translate(16,40)"/>
<path d="M0 0 C0.66 0.33 1.32 0.66 2 1 C0.41450777 5.84455959 0.41450777 5.84455959 -1 8 C-4.1875 8.9375 -4.1875 8.9375 -7 9 C-7 8.34 -7 7.68 -7 7 C-5.68 6.67 -4.36 6.34 -3 6 C-3 5.34 -3 4.68 -3 4 C-2.34 4 -1.68 4 -1 4 C-0.67 2.68 -0.34 1.36 0 0 Z " fill="#D3CBB7" transform="translate(183,40)"/>
<path d="M0 0 C0.66 0.66 1.32 1.32 2 2 C0.515 4.475 0.515 4.475 -1 7 C-2.65 6.67 -4.3 6.34 -6 6 C-4 4 -2 2 0 0 Z " fill="#D0C6B6" transform="translate(182,144)"/>
<path d="M0 0 C0.33 0.66 0.66 1.32 1 2 C1.66 1.67 2.32 1.34 3 1 C5.6723621 0.86584528 8.32250488 0.95681459 11 1 C7.17482487 3.39073445 3.40334476 3.55966552 -1 4 C-0.67 2.68 -0.34 1.36 0 0 Z " fill="#F2EAA0" transform="translate(17,93)"/>
<path d="M0 0 C0.33 0.99 0.66 1.98 1 3 C2.98 3 4.96 3 7 3 C3.91190305 4.76462683 2.76687864 5 -1 5 C-1.33 3.68 -1.66 2.36 -2 1 C-1.34 0.67 -0.68 0.34 0 0 Z " fill="#C0933C" transform="translate(17,143)"/>
</svg>
